# Blender v2.79 (sub 0) OBJ File: ''
# www.blender.org
mtllib 2obj.mtl
o Cube
v 1.000000 -1.000000 -1.000000
v -0.000000 -1.000000 1.000000
v -1.000000 -1.000000 -1.000000
v -0.000000 1.000000 0.000000
vn 0.0000 -1.0000 0.0000
vn 0.8729 0.2182 0.4364
vn -0.8729 0.2182 0.4364
vn 0.0000 0.4472 -0.8944
usemtl Material
s off
f 1//1 2//1 3//1
f 1//2 4//2 2//2
f 2//3 4//3 3//3
f 4//4 1//4 3//4
o Cube.001
v -4.750813 -1.000000 -1.000000
v -4.117233 -1.000000 3.067000
v -5.117233 -1.000000 -1.000000
v -4.117233 -0.410986 0.000000
vn 0.0000 -1.0000 0.0000
vn 0.7710 -0.6254 -0.1201
vn -0.6086 0.7792 0.1496
vn 0.0000 0.8616 -0.5075
usemtl Material.001
s off
f 5//5 6//5 7//5
f 5//6 8//6 6//6
f 6//7 8//7 7//7
f 8//8 5//8 7//8
